<svg xmlns="http://www.w3.org/2000/svg" xmlns:xlink="http://www.w3.org/1999/xlink" viewBox="0 0 50 50"><defs><style>.cls-1{fill:url(#linear-gradient);}.cls-2{fill:url(#linear-gradient-2);}.cls-3{fill:url(#linear-gradient-3);}</style><linearGradient id="linear-gradient" y1="25" x2="50" y2="25" gradientUnits="userSpaceOnUse"><stop offset="0" stop-color="#ee8577"/><stop offset="1" stop-color="#ef4c78"/></linearGradient><linearGradient id="linear-gradient-2" x1="14.32" y1="35.53" x2="31.71" y2="18.14" gradientUnits="userSpaceOnUse"><stop offset="0" stop-color="#fff" stop-opacity="0.85"/><stop offset="1" stop-color="#fff"/></linearGradient><linearGradient id="linear-gradient-3" x1="21.46" y1="20.08" x2="38.06" y2="20.08" gradientUnits="userSpaceOnUse"><stop offset="0" stop-color="#ededed" stop-opacity="0.85"/><stop offset="1" stop-color="#fdfefe"/></linearGradient></defs><title>connectU-logo2</title><g id="Layer_2" data-name="Layer 2"><g id="Layer_1-2" data-name="Layer 1"><rect class="cls-1" width="50" height="50"/><path class="cls-2" d="M22.72,10.07A2.78,2.78,0,0,1,25,11.74a2.94,2.94,0,0,1-1.68,3.56c-.67.16-5.18,1.28-7,5.31a10.09,10.09,0,0,0-.74,4.88A9.66,9.66,0,0,0,17,30.11a9.33,9.33,0,0,0,4,3.5,9.63,9.63,0,0,0,6.28.53,10.66,10.66,0,0,0,4.56-2.49,10.8,10.8,0,0,0,2.28-3.07,10.55,10.55,0,0,0,.65-1.68,2.68,2.68,0,1,1,5.14,1.52,15.67,15.67,0,0,1-7,9.34,15.3,15.3,0,0,1-15.49.14,15,15,0,0,1-4.88-4.53,15.66,15.66,0,0,1-2.35-11,15.47,15.47,0,0,1,1.23-4.12A14,14,0,0,1,18.92,11,14.57,14.57,0,0,1,22.72,10.07Z"/><path class="cls-3" d="M34.44,11.81a3.63,3.63,0,0,0-3.63,3.63,3.42,3.42,0,0,0,.09.79,3.92,3.92,0,0,1-.42,1.42A6.42,6.42,0,0,1,29.39,19a9,9,0,0,1-2.12,1.84,5.94,5.94,0,0,1-1.15.47,3.53,3.53,0,0,0-1-.17,3.63,3.63,0,1,0,3.63,3.63,3.58,3.58,0,0,0-.12-.87,9.17,9.17,0,0,1,2.14-3.22,5.92,5.92,0,0,1,2-1.33,4.49,4.49,0,0,1,1.2-.28,4,4,0,0,0,.5.05,3.63,3.63,0,0,0,0-7.26Z"/></g></g></svg>