<svg xmlns="http://www.w3.org/2000/svg" xmlns:xlink="http://www.w3.org/1999/xlink" viewBox="0 0 121.5 29.87"><defs><style>.cls-1{fill:url(#linear-gradient);}.cls-2{fill:url(#linear-gradient-2);}.cls-3{fill:url(#linear-gradient-3);}.cls-4{fill:url(#linear-gradient-4);}.cls-5{fill:url(#linear-gradient-5);}.cls-6{fill:url(#linear-gradient-6);}.cls-7{fill:url(#linear-gradient-7);}.cls-8{fill:url(#linear-gradient-8);}.cls-9{fill:url(#linear-gradient-9);}.cls-10{fill:url(#linear-gradient-10);}</style><linearGradient id="linear-gradient" x1="4.33" y1="25.46" x2="21.72" y2="8.08" gradientUnits="userSpaceOnUse"><stop offset="0" stop-color="#ee8577"/><stop offset="1" stop-color="#ef4c78"/></linearGradient><linearGradient id="linear-gradient-2" x1="11.47" y1="10.01" x2="28.07" y2="10.01" xlink:href="#linear-gradient"/><linearGradient id="linear-gradient-3" x1="35.96" y1="14.93" x2="48.32" y2="14.93" xlink:href="#linear-gradient"/><linearGradient id="linear-gradient-4" x1="48.49" y1="17" x2="58.64" y2="17" xlink:href="#linear-gradient"/><linearGradient id="linear-gradient-5" x1="59.6" y1="16.89" x2="69.11" y2="16.89" xlink:href="#linear-gradient"/><linearGradient id="linear-gradient-6" x1="70.28" y1="16.89" x2="79.79" y2="16.89" xlink:href="#linear-gradient"/><linearGradient id="linear-gradient-7" x1="81.27" y1="17" x2="90.66" y2="17" xlink:href="#linear-gradient"/><linearGradient id="linear-gradient-8" x1="91.95" y1="17" x2="100.73" y2="17" xlink:href="#linear-gradient"/><linearGradient id="linear-gradient-9" x1="100.69" y1="15.77" x2="108.05" y2="15.77" xlink:href="#linear-gradient"/><linearGradient id="linear-gradient-10" x1="109.18" y1="15.1" x2="121.5" y2="15.1" xlink:href="#linear-gradient"/></defs><title>connectU-logo1</title><g id="Layer_2" data-name="Layer 2"><g id="Layer_1-2" data-name="Layer 1"><path class="cls-1" d="M12.72,0A2.82,2.82,0,0,1,15,1.67a2.94,2.94,0,0,1-1.68,3.56c-.67.16-5.18,1.29-7,5.31a10.09,10.09,0,0,0-.74,4.88A9.52,9.52,0,0,0,7,20a9.38,9.38,0,0,0,4,3.5,9.52,9.52,0,0,0,6.29.53,10.54,10.54,0,0,0,4.56-2.49,10.86,10.86,0,0,0,2.28-3.07,10.5,10.5,0,0,0,.65-1.67,2.68,2.68,0,1,1,5.14,1.51,17.07,17.07,0,0,1-.77,2.21,15.62,15.62,0,0,1-6.21,7.14,15.47,15.47,0,0,1-7.47,2.16,15.25,15.25,0,0,1-8-2A14.9,14.9,0,0,1,2.54,23.3a15.6,15.6,0,0,1-2.35-11A15.47,15.47,0,0,1,1.42,8.16,14.56,14.56,0,0,1,5.49,3,14.05,14.05,0,0,1,8.93,1,14.2,14.2,0,0,1,12.72,0Z"/><path class="cls-2" d="M24.44,1.74a3.63,3.63,0,0,0-3.62,3.63,3.35,3.35,0,0,0,.09.79,3.81,3.81,0,0,1-.42,1.42,6.15,6.15,0,0,1-1.09,1.3,9,9,0,0,1-2.12,1.84,5.37,5.37,0,0,1-1.15.47,3.53,3.53,0,0,0-1-.17,3.63,3.63,0,1,0,3.62,3.63,3.49,3.49,0,0,0-.11-.86,9.11,9.11,0,0,1,2.14-3.23,6,6,0,0,1,2-1.33A5.36,5.36,0,0,1,23.94,9a4.23,4.23,0,0,0,.5.05,3.63,3.63,0,0,0,0-7.26Z"/><path class="cls-3" d="M45.82,11.77a2.38,2.38,0,0,0-1-.8,3.11,3.11,0,0,0-1.39-.28,3.84,3.84,0,0,0-1.57.32,4.34,4.34,0,0,0-1.33.88,5,5,0,0,0-1,1.35,5.06,5.06,0,0,0-.53,1.69,4.63,4.63,0,0,0,0,1.71,3.64,3.64,0,0,0,.6,1.34,2.93,2.93,0,0,0,1.06.88,3.18,3.18,0,0,0,1.42.32,3.6,3.6,0,0,0,1.64-.38,3.69,3.69,0,0,0,1.29-1l2.15,1.81a6.13,6.13,0,0,1-2.36,1.73,7.16,7.16,0,0,1-2.72.56,7.41,7.41,0,0,1-2.78-.49A5.35,5.35,0,0,1,37.35,20a5.44,5.44,0,0,1-1.17-2.19,7,7,0,0,1-.13-2.87A8.1,8.1,0,0,1,37,12.07a7.68,7.68,0,0,1,1.79-2.19,7.94,7.94,0,0,1,2.44-1.39A8.87,8.87,0,0,1,44.15,8a6.43,6.43,0,0,1,1.14.1,6,6,0,0,1,1.15.33A4.55,4.55,0,0,1,47.49,9a3.44,3.44,0,0,1,.83.91Z"/><path class="cls-4" d="M48.54,17a5.35,5.35,0,0,1,.66-2,5.55,5.55,0,0,1,1.27-1.49,5.47,5.47,0,0,1,1.74-1,5.89,5.89,0,0,1,2-.34,5.15,5.15,0,0,1,1.91.34,3.76,3.76,0,0,1,1.47,1A3.65,3.65,0,0,1,58.47,15a4.52,4.52,0,0,1,.12,2A5.08,5.08,0,0,1,57.92,19a5.65,5.65,0,0,1-1.28,1.5,5.53,5.53,0,0,1-1.73,1,6.25,6.25,0,0,1-2,.34A5.36,5.36,0,0,1,51,21.41,3.74,3.74,0,0,1,48.66,19,4.46,4.46,0,0,1,48.54,17Zm2.79,0a2.11,2.11,0,0,0,.35,1.66,1.83,1.83,0,0,0,1.55.63A2.45,2.45,0,0,0,55,18.66,2.78,2.78,0,0,0,55.8,17a2.1,2.1,0,0,0-.35-1.66,1.9,1.9,0,0,0-1.57-.63,2.42,2.42,0,0,0-1.73.63A2.74,2.74,0,0,0,51.33,17Z"/><path class="cls-5" d="M60.86,12.48h2.68l-.17,1.22h0a2.92,2.92,0,0,1,.45-.52,3.61,3.61,0,0,1,1.43-.8,3.69,3.69,0,0,1,.95-.13,3.58,3.58,0,0,1,1.68.33,2,2,0,0,1,.89.9,3.2,3.2,0,0,1,.3,1.36A11.3,11.3,0,0,1,69,16.53l-.69,5h-2.8l.62-4.43q.06-.39.09-.81a2.16,2.16,0,0,0,0-.77,1.13,1.13,0,0,0-.36-.58,1.19,1.19,0,0,0-.8-.22,1.87,1.87,0,0,0-.9.19,1.77,1.77,0,0,0-.59.53,2.21,2.21,0,0,0-.33.73A5.69,5.69,0,0,0,63,17l-.63,4.5H59.6Z"/><path class="cls-6" d="M71.55,12.48h2.68l-.17,1.22h0a3.29,3.29,0,0,1,.44-.52,3.37,3.37,0,0,1,.64-.46,3.44,3.44,0,0,1,.8-.34,4,4,0,0,1,2.62.2,2,2,0,0,1,.89.9,3.2,3.2,0,0,1,.3,1.36,9.15,9.15,0,0,1-.11,1.69l-.69,5H76.2l.61-4.43c0-.26.07-.53.1-.81a2.41,2.41,0,0,0-.06-.77,1.11,1.11,0,0,0-.35-.58,1.21,1.21,0,0,0-.8-.22,1.94,1.94,0,0,0-.91.19,1.74,1.74,0,0,0-.58.53,2.45,2.45,0,0,0-.34.73,5.7,5.7,0,0,0-.16.86l-.64,4.5H70.28Z"/><path class="cls-7" d="M89.73,20a5.3,5.3,0,0,1-1.87,1.32,5.5,5.5,0,0,1-2.19.47,5.36,5.36,0,0,1-1.91-.34,3.72,3.72,0,0,1-1.46-1,3.61,3.61,0,0,1-.86-1.5A4.46,4.46,0,0,1,81.32,17a5.31,5.31,0,0,1,1.93-3.45,5.53,5.53,0,0,1,1.73-1,6,6,0,0,1,2-.34,4,4,0,0,1,1.71.34,3,3,0,0,1,1.21,1A3.67,3.67,0,0,1,90.56,15a5.8,5.8,0,0,1,0,2l-.13.87H84a1.89,1.89,0,0,0,.55,1.28,1.8,1.8,0,0,0,1.31.47,2.32,2.32,0,0,0,1.2-.3,4.11,4.11,0,0,0,.94-.79Zm-1.8-4a1.48,1.48,0,0,0-.3-1.21,1.43,1.43,0,0,0-1.17-.51,2.21,2.21,0,0,0-.84.15,2.27,2.27,0,0,0-1.12.92,2.27,2.27,0,0,0-.26.65Z"/><path class="cls-8" d="M98.63,15.4a1.36,1.36,0,0,0-.51-.5,1.54,1.54,0,0,0-.77-.19,2.45,2.45,0,0,0-1.74.63A2.8,2.8,0,0,0,94.79,17a2.15,2.15,0,0,0,.35,1.66,1.85,1.85,0,0,0,1.55.63,1.69,1.69,0,0,0,.84-.21,2.44,2.44,0,0,0,.65-.48l1.57,1.94a4.53,4.53,0,0,1-1.68.94,6.06,6.06,0,0,1-1.71.27,5.37,5.37,0,0,1-1.92-.34,3.8,3.8,0,0,1-1.46-1,3.72,3.72,0,0,1-.86-1.5A4.46,4.46,0,0,1,92,17a5.35,5.35,0,0,1,.66-2,5.59,5.59,0,0,1,3-2.45,5.89,5.89,0,0,1,2-.34,5.47,5.47,0,0,1,1.65.27,3,3,0,0,1,1.4.94Z"/><path class="cls-9" d="M107.73,14.71h-2.46l-.42,3a4.37,4.37,0,0,0-.06.68,1.19,1.19,0,0,0,.1.53.72.72,0,0,0,.36.35,1.61,1.61,0,0,0,.69.12,5.18,5.18,0,0,0,.59,0,1.14,1.14,0,0,0,.57-.21l-.32,2.33a4.73,4.73,0,0,1-1,.22,8.78,8.78,0,0,1-1,.06,5.05,5.05,0,0,1-1.28-.15,2.5,2.5,0,0,1-1-.48,1.85,1.85,0,0,1-.58-.84,2.87,2.87,0,0,1-.08-1.27l.61-4.3h-1.79l.32-2.23h1.79l.37-2.68H106l-.37,2.68h2.46Z"/><path class="cls-10" d="M120.37,16.44a7,7,0,0,1-.66,2.16,5.62,5.62,0,0,1-1.3,1.71,5.79,5.79,0,0,1-1.89,1.14,7.09,7.09,0,0,1-2.46.41,6.16,6.16,0,0,1-2.36-.41,4,4,0,0,1-1.59-1.14,4.11,4.11,0,0,1-.81-1.71,6,6,0,0,1,0-2.16l1.13-8.1h2.91l-1.12,8a3,3,0,0,0,0,1.13,2.19,2.19,0,0,0,.43.91,2,2,0,0,0,.76.59,2.29,2.29,0,0,0,1,.22,2.66,2.66,0,0,0,1.09-.22,3.08,3.08,0,0,0,.92-.59,3.44,3.44,0,0,0,.68-.91,3.48,3.48,0,0,0,.36-1.13l1.12-8h2.9Z"/></g></g></svg>